G75*
%MOIN*%
%OFA0B0*%
%FSLAX25Y25*%
%IPPOS*%
%LPD*%
%AMOC8*
5,1,8,0,0,1.08239X$1,22.5*
%
%ADD10OC8,0.04800*%
%ADD11C,0.07400*%
%ADD12R,0.08000X0.08000*%
%ADD13C,0.08000*%
%ADD14R,0.09500X0.09500*%
%ADD15C,0.09500*%
%ADD16C,0.04800*%
%ADD17OC8,0.06600*%
%ADD18C,0.04000*%
D10*
X0072100Y0027500D03*
X0092100Y0027500D03*
D11*
X0134000Y0015500D03*
X0144000Y0015500D03*
D12*
X0109243Y0180000D03*
D13*
X0089557Y0180000D03*
D14*
X0114400Y0029600D03*
D15*
X0134085Y0029600D03*
X0153770Y0029600D03*
D16*
X0118700Y0065400D02*
X0113900Y0065400D01*
X0113900Y0075400D02*
X0118700Y0075400D01*
X0118700Y0085400D02*
X0113900Y0085400D01*
X0113900Y0095400D02*
X0118700Y0095400D01*
X0118700Y0105400D02*
X0113900Y0105400D01*
X0113900Y0115400D02*
X0118700Y0115400D01*
X0118700Y0125400D02*
X0113900Y0125400D01*
X0088700Y0125400D02*
X0083900Y0125400D01*
X0083900Y0115400D02*
X0088700Y0115400D01*
X0088700Y0105400D02*
X0083900Y0105400D01*
X0083900Y0095400D02*
X0088700Y0095400D01*
X0088700Y0085400D02*
X0083900Y0085400D01*
X0083900Y0075400D02*
X0088700Y0075400D01*
X0088700Y0065400D02*
X0083900Y0065400D01*
D17*
X0075000Y0064700D03*
X0075000Y0075300D03*
X0075000Y0104700D03*
X0075000Y0115300D03*
X0074800Y0125600D03*
X0080100Y0143600D03*
X0080100Y0153600D03*
X0041700Y0153600D03*
X0041700Y0143600D03*
X0034800Y0125600D03*
X0035000Y0115300D03*
X0035000Y0104700D03*
X0035000Y0075300D03*
X0035000Y0064700D03*
X0046500Y0046400D03*
X0086500Y0046400D03*
X0116100Y0053900D03*
X0126800Y0064800D03*
X0126800Y0075500D03*
X0127100Y0104800D03*
X0127100Y0115200D03*
X0127200Y0125700D03*
X0118900Y0143300D03*
X0118900Y0153300D03*
X0157100Y0153600D03*
X0157100Y0143600D03*
X0167200Y0125700D03*
X0167100Y0115200D03*
X0167100Y0104800D03*
X0166800Y0075500D03*
X0166800Y0064800D03*
X0156100Y0053900D03*
D18*
X0006500Y0007000D02*
X0006500Y0196961D01*
X0192100Y0196961D01*
X0192100Y0007000D01*
X0006500Y0007000D01*
X0006500Y0007999D02*
X0131100Y0007999D01*
X0131253Y0007846D02*
X0131312Y0007822D01*
X0131359Y0007777D01*
X0132229Y0007442D01*
X0133090Y0007085D01*
X0133155Y0007085D01*
X0133215Y0007062D01*
X0134147Y0007085D01*
X0135080Y0007085D01*
X0135139Y0007110D01*
X0135204Y0007111D01*
X0136056Y0007490D01*
X0136917Y0007846D01*
X0136963Y0007892D01*
X0137022Y0007918D01*
X0137664Y0008593D01*
X0138324Y0009253D01*
X0138349Y0009312D01*
X0138393Y0009359D01*
X0138728Y0010229D01*
X0139041Y0010984D01*
X0139573Y0010452D01*
X0140270Y0009917D01*
X0141030Y0009478D01*
X0141842Y0009142D01*
X0142690Y0008915D01*
X0143561Y0008800D01*
X0144000Y0008800D01*
X0144439Y0008800D01*
X0145310Y0008915D01*
X0146158Y0009142D01*
X0146970Y0009478D01*
X0147730Y0009917D01*
X0148427Y0010452D01*
X0149048Y0011073D01*
X0149583Y0011770D01*
X0150022Y0012530D01*
X0150358Y0013342D01*
X0150585Y0014190D01*
X0150700Y0015061D01*
X0150700Y0015500D01*
X0150700Y0015939D01*
X0150585Y0016810D01*
X0150358Y0017658D01*
X0150022Y0018470D01*
X0149583Y0019230D01*
X0149048Y0019927D01*
X0148427Y0020548D01*
X0147730Y0021083D01*
X0146970Y0021522D01*
X0146158Y0021858D01*
X0145310Y0022085D01*
X0144439Y0022200D01*
X0144000Y0022200D01*
X0144000Y0015500D01*
X0144000Y0015500D01*
X0150700Y0015500D01*
X0144000Y0015500D01*
X0144000Y0015500D01*
X0144000Y0022200D01*
X0143561Y0022200D01*
X0142690Y0022085D01*
X0141842Y0021858D01*
X0141030Y0021522D01*
X0140270Y0021083D01*
X0139573Y0020548D01*
X0139085Y0020060D01*
X0139085Y0023640D01*
X0140655Y0025210D01*
X0141835Y0028058D01*
X0141835Y0031142D01*
X0140655Y0033990D01*
X0138475Y0036170D01*
X0135627Y0037350D01*
X0135536Y0037350D01*
X0126054Y0046832D01*
X0126054Y0046832D01*
X0124647Y0048239D01*
X0122810Y0049000D01*
X0120110Y0049000D01*
X0122400Y0051290D01*
X0122400Y0056510D01*
X0121300Y0057610D01*
X0121300Y0060632D01*
X0121759Y0060822D01*
X0121814Y0060877D01*
X0124190Y0058500D01*
X0129410Y0058500D01*
X0133100Y0062190D01*
X0133100Y0067410D01*
X0131800Y0068710D01*
X0131800Y0071590D01*
X0133100Y0072890D01*
X0133100Y0078110D01*
X0129410Y0081800D01*
X0124190Y0081800D01*
X0122890Y0080500D01*
X0120981Y0080500D01*
X0121759Y0080822D01*
X0123278Y0082341D01*
X0124100Y0084326D01*
X0124100Y0086474D01*
X0123278Y0088459D01*
X0121759Y0089978D01*
X0120760Y0090392D01*
X0120773Y0090396D01*
X0121530Y0090782D01*
X0122218Y0091281D01*
X0122819Y0091882D01*
X0123318Y0092570D01*
X0123704Y0093327D01*
X0123967Y0094135D01*
X0124100Y0094975D01*
X0124100Y0095400D01*
X0124100Y0095825D01*
X0123967Y0096665D01*
X0123704Y0097473D01*
X0123318Y0098230D01*
X0122819Y0098918D01*
X0122218Y0099519D01*
X0121530Y0100018D01*
X0120773Y0100404D01*
X0120760Y0100408D01*
X0121759Y0100822D01*
X0121964Y0101027D01*
X0124490Y0098500D01*
X0129710Y0098500D01*
X0133400Y0102190D01*
X0133400Y0107410D01*
X0132100Y0108710D01*
X0132100Y0111290D01*
X0133400Y0112590D01*
X0133400Y0117810D01*
X0130810Y0120400D01*
X0133500Y0123090D01*
X0133500Y0128310D01*
X0129810Y0132000D01*
X0124590Y0132000D01*
X0123290Y0130700D01*
X0120016Y0130700D01*
X0119774Y0130800D01*
X0112826Y0130800D01*
X0110841Y0129978D01*
X0109322Y0128459D01*
X0108500Y0126474D01*
X0108500Y0124326D01*
X0109322Y0122341D01*
X0110841Y0120822D01*
X0111860Y0120400D01*
X0110841Y0119978D01*
X0109322Y0118459D01*
X0108500Y0116474D01*
X0108500Y0114326D01*
X0109322Y0112341D01*
X0110841Y0110822D01*
X0111860Y0110400D01*
X0109405Y0110400D01*
X0107568Y0109639D01*
X0105000Y0107071D01*
X0105000Y0160500D01*
X0160429Y0160500D01*
X0170500Y0150429D01*
X0170500Y0137271D01*
X0170032Y0137739D01*
X0163400Y0144371D01*
X0163400Y0146210D01*
X0161010Y0148600D01*
X0163400Y0150990D01*
X0163400Y0153600D01*
X0163400Y0156210D01*
X0159710Y0159900D01*
X0157100Y0159900D01*
X0157100Y0153600D01*
X0157100Y0153600D01*
X0163400Y0153600D01*
X0157100Y0153600D01*
X0157100Y0153600D01*
X0157100Y0153600D01*
X0150800Y0153600D01*
X0150800Y0156210D01*
X0154490Y0159900D01*
X0157100Y0159900D01*
X0157100Y0153600D01*
X0150800Y0153600D01*
X0150800Y0150990D01*
X0153190Y0148600D01*
X0150800Y0146210D01*
X0150800Y0140990D01*
X0154490Y0137300D01*
X0156329Y0137300D01*
X0162200Y0131429D01*
X0162200Y0129610D01*
X0160900Y0128310D01*
X0160900Y0123090D01*
X0163490Y0120500D01*
X0160800Y0117810D01*
X0160800Y0115200D01*
X0167100Y0115200D01*
X0167100Y0115200D01*
X0160800Y0115200D01*
X0160800Y0112590D01*
X0163390Y0110000D01*
X0160800Y0107410D01*
X0160800Y0102190D01*
X0164490Y0098500D01*
X0169710Y0098500D01*
X0170500Y0099290D01*
X0170500Y0080710D01*
X0169410Y0081800D01*
X0166800Y0081800D01*
X0166800Y0075500D01*
X0166800Y0075500D01*
X0166800Y0075500D01*
X0160500Y0075500D01*
X0160500Y0078110D01*
X0164190Y0081800D01*
X0166800Y0081800D01*
X0166800Y0075500D01*
X0160500Y0075500D01*
X0160500Y0072890D01*
X0163240Y0070150D01*
X0160500Y0067410D01*
X0160500Y0062190D01*
X0161800Y0060890D01*
X0161800Y0057110D01*
X0158710Y0060200D01*
X0157871Y0060200D01*
X0156000Y0062071D01*
X0156000Y0124495D01*
X0155239Y0126332D01*
X0134739Y0146832D01*
X0133332Y0148239D01*
X0131495Y0149000D01*
X0123510Y0149000D01*
X0125200Y0150690D01*
X0125200Y0153300D01*
X0125200Y0155910D01*
X0121510Y0159600D01*
X0118900Y0159600D01*
X0118900Y0153300D01*
X0125200Y0153300D01*
X0118900Y0153300D01*
X0118900Y0153300D01*
X0118900Y0153300D01*
X0118900Y0153300D01*
X0112600Y0153300D01*
X0112600Y0155910D01*
X0116290Y0159600D01*
X0118900Y0159600D01*
X0118900Y0153300D01*
X0112600Y0153300D01*
X0112600Y0150690D01*
X0114990Y0148300D01*
X0112600Y0145910D01*
X0112600Y0140690D01*
X0116290Y0137000D01*
X0121510Y0137000D01*
X0123510Y0139000D01*
X0128429Y0139000D01*
X0146000Y0121429D01*
X0146000Y0059005D01*
X0146761Y0057168D01*
X0148168Y0055761D01*
X0149800Y0054129D01*
X0149800Y0051290D01*
X0153490Y0047600D01*
X0158710Y0047600D01*
X0161800Y0050690D01*
X0161800Y0044701D01*
X0154449Y0037350D01*
X0152228Y0037350D01*
X0149380Y0036170D01*
X0147200Y0033990D01*
X0146020Y0031142D01*
X0146020Y0028058D01*
X0147200Y0025210D01*
X0149380Y0023030D01*
X0152228Y0021850D01*
X0155312Y0021850D01*
X0158160Y0023030D01*
X0160340Y0025210D01*
X0161520Y0028058D01*
X0161520Y0030279D01*
X0171039Y0039798D01*
X0171800Y0041635D01*
X0171800Y0059500D01*
X0171856Y0059500D01*
X0172705Y0059451D01*
X0172846Y0059500D01*
X0172995Y0059500D01*
X0173780Y0059825D01*
X0174583Y0060105D01*
X0174695Y0060204D01*
X0174832Y0060261D01*
X0175434Y0060863D01*
X0176069Y0061428D01*
X0176133Y0061562D01*
X0178332Y0063761D01*
X0179739Y0065168D01*
X0180500Y0067005D01*
X0180500Y0153495D01*
X0179739Y0155332D01*
X0166739Y0168332D01*
X0165332Y0169739D01*
X0163495Y0170500D01*
X0106814Y0170500D01*
X0109314Y0173000D01*
X0113839Y0173000D01*
X0114942Y0173457D01*
X0115786Y0174301D01*
X0116243Y0175403D01*
X0116243Y0184597D01*
X0115786Y0185699D01*
X0114942Y0186543D01*
X0113839Y0187000D01*
X0104646Y0187000D01*
X0103543Y0186543D01*
X0102699Y0185699D01*
X0102243Y0184597D01*
X0102243Y0180071D01*
X0097168Y0174996D01*
X0095761Y0173590D01*
X0095000Y0171752D01*
X0095000Y0170500D01*
X0033005Y0170500D01*
X0031168Y0169739D01*
X0029761Y0168332D01*
X0017761Y0156332D01*
X0017000Y0154495D01*
X0017000Y0113005D01*
X0017761Y0111168D01*
X0019168Y0109761D01*
X0026079Y0102850D01*
X0022761Y0099532D01*
X0022000Y0097695D01*
X0022000Y0066505D01*
X0022761Y0064668D01*
X0024168Y0063261D01*
X0027168Y0060261D01*
X0029005Y0059500D01*
X0030000Y0059500D01*
X0030000Y0028505D01*
X0030761Y0026668D01*
X0032168Y0025261D01*
X0044761Y0012668D01*
X0046168Y0011261D01*
X0048005Y0010500D01*
X0081495Y0010500D01*
X0083332Y0011261D01*
X0094171Y0022100D01*
X0094337Y0022100D01*
X0097500Y0025263D01*
X0097500Y0029737D01*
X0094337Y0032900D01*
X0089863Y0032900D01*
X0086700Y0029737D01*
X0086700Y0028771D01*
X0078429Y0020500D01*
X0051071Y0020500D01*
X0040000Y0031571D01*
X0040000Y0060790D01*
X0041300Y0062090D01*
X0041300Y0067310D01*
X0038610Y0070000D01*
X0041300Y0072690D01*
X0041300Y0075300D01*
X0041300Y0077910D01*
X0037610Y0081600D01*
X0035000Y0081600D01*
X0035000Y0075300D01*
X0035000Y0075300D01*
X0041300Y0075300D01*
X0035000Y0075300D01*
X0035000Y0075300D01*
X0035000Y0081600D01*
X0032390Y0081600D01*
X0032000Y0081210D01*
X0032000Y0094629D01*
X0035771Y0098400D01*
X0037610Y0098400D01*
X0041300Y0102090D01*
X0041300Y0107310D01*
X0038610Y0110000D01*
X0041300Y0112690D01*
X0041300Y0115300D01*
X0041300Y0117910D01*
X0038660Y0120550D01*
X0041100Y0122990D01*
X0041100Y0128210D01*
X0039800Y0129510D01*
X0039800Y0134629D01*
X0042471Y0137300D01*
X0044310Y0137300D01*
X0048000Y0140990D01*
X0048000Y0146210D01*
X0045610Y0148600D01*
X0048000Y0150990D01*
X0048000Y0153600D01*
X0048000Y0156210D01*
X0044310Y0159900D01*
X0041700Y0159900D01*
X0041700Y0153600D01*
X0041700Y0153600D01*
X0048000Y0153600D01*
X0041700Y0153600D01*
X0041700Y0153600D01*
X0041700Y0153600D01*
X0035400Y0153600D01*
X0035400Y0156210D01*
X0039090Y0159900D01*
X0041700Y0159900D01*
X0041700Y0153600D01*
X0035400Y0153600D01*
X0035400Y0150990D01*
X0037790Y0148600D01*
X0035400Y0146210D01*
X0035400Y0144371D01*
X0031968Y0140939D01*
X0030561Y0139532D01*
X0029800Y0137695D01*
X0029800Y0129510D01*
X0028500Y0128210D01*
X0028500Y0122990D01*
X0031140Y0120350D01*
X0028700Y0117910D01*
X0028700Y0115300D01*
X0035000Y0115300D01*
X0041300Y0115300D01*
X0035000Y0115300D01*
X0035000Y0115300D01*
X0035000Y0115300D01*
X0028700Y0115300D01*
X0028700Y0114371D01*
X0027000Y0116071D01*
X0027000Y0151429D01*
X0036071Y0160500D01*
X0095000Y0160500D01*
X0095000Y0105071D01*
X0093991Y0104062D01*
X0094100Y0104326D01*
X0094100Y0106474D01*
X0093278Y0108459D01*
X0091759Y0109978D01*
X0090740Y0110400D01*
X0091759Y0110822D01*
X0093278Y0112341D01*
X0094100Y0114326D01*
X0094100Y0116474D01*
X0093278Y0118459D01*
X0091759Y0119978D01*
X0090740Y0120400D01*
X0091759Y0120822D01*
X0093278Y0122341D01*
X0094100Y0124326D01*
X0094100Y0126474D01*
X0093278Y0128459D01*
X0091759Y0129978D01*
X0089774Y0130800D01*
X0082826Y0130800D01*
X0082343Y0130600D01*
X0078710Y0130600D01*
X0077410Y0131900D01*
X0072190Y0131900D01*
X0068500Y0128210D01*
X0068500Y0122990D01*
X0071140Y0120350D01*
X0068700Y0117910D01*
X0068700Y0112690D01*
X0070000Y0111390D01*
X0070000Y0108610D01*
X0068700Y0107310D01*
X0068700Y0102090D01*
X0072087Y0098704D01*
X0072000Y0098495D01*
X0072000Y0089505D01*
X0072761Y0087668D01*
X0074168Y0086261D01*
X0079268Y0081161D01*
X0081105Y0080400D01*
X0081860Y0080400D01*
X0081860Y0080400D01*
X0081619Y0080300D01*
X0078910Y0080300D01*
X0077610Y0081600D01*
X0072390Y0081600D01*
X0068700Y0077910D01*
X0068700Y0072690D01*
X0070000Y0071390D01*
X0070000Y0068610D01*
X0068700Y0067310D01*
X0068700Y0062090D01*
X0072390Y0058400D01*
X0077610Y0058400D01*
X0080436Y0061227D01*
X0080841Y0060822D01*
X0081300Y0060632D01*
X0081300Y0055027D01*
X0081276Y0054964D01*
X0081300Y0054035D01*
X0081300Y0053105D01*
X0081326Y0053043D01*
X0081399Y0050209D01*
X0080200Y0049010D01*
X0080200Y0043790D01*
X0083890Y0040100D01*
X0089110Y0040100D01*
X0092800Y0043790D01*
X0092800Y0049010D01*
X0091397Y0050412D01*
X0091300Y0054165D01*
X0091300Y0060632D01*
X0091759Y0060822D01*
X0093278Y0062341D01*
X0094100Y0064326D01*
X0094100Y0066474D01*
X0093278Y0068459D01*
X0091759Y0069978D01*
X0090740Y0070400D01*
X0091759Y0070822D01*
X0093278Y0072341D01*
X0094100Y0074326D01*
X0094100Y0076474D01*
X0093278Y0078459D01*
X0091759Y0079978D01*
X0090740Y0080400D01*
X0096000Y0080400D01*
X0096000Y0047505D01*
X0096761Y0045668D01*
X0098168Y0044261D01*
X0102668Y0039761D01*
X0104505Y0039000D01*
X0119744Y0039000D01*
X0126706Y0032038D01*
X0126335Y0031142D01*
X0126335Y0028058D01*
X0127515Y0025210D01*
X0129085Y0023640D01*
X0129085Y0020060D01*
X0128320Y0019295D01*
X0127300Y0016833D01*
X0127300Y0014167D01*
X0128320Y0011705D01*
X0129154Y0010871D01*
X0129490Y0010114D01*
X0129846Y0009253D01*
X0129892Y0009207D01*
X0129918Y0009148D01*
X0130593Y0008506D01*
X0131253Y0007846D01*
X0134085Y0012085D02*
X0134085Y0029600D01*
X0134085Y0031730D01*
X0121815Y0044000D01*
X0105500Y0044000D01*
X0101000Y0048500D01*
X0101000Y0085400D01*
X0086300Y0085400D01*
X0082100Y0085400D01*
X0077000Y0090500D01*
X0077000Y0097500D01*
X0082000Y0102500D01*
X0086300Y0105400D01*
X0093484Y0107961D02*
X0095000Y0107961D01*
X0095000Y0111960D02*
X0092897Y0111960D01*
X0094100Y0115958D02*
X0095000Y0115958D01*
X0095000Y0119957D02*
X0091780Y0119957D01*
X0093947Y0123955D02*
X0095000Y0123955D01*
X0095000Y0127954D02*
X0093487Y0127954D01*
X0095000Y0131952D02*
X0063023Y0131952D01*
X0059025Y0127954D02*
X0068500Y0127954D01*
X0068500Y0123955D02*
X0055026Y0123955D01*
X0051500Y0120429D02*
X0069571Y0138500D01*
X0076290Y0138500D01*
X0077490Y0137300D01*
X0082710Y0137300D01*
X0086400Y0140990D01*
X0086400Y0146210D01*
X0084010Y0148600D01*
X0086400Y0150990D01*
X0086400Y0153600D01*
X0086400Y0156210D01*
X0082710Y0159900D01*
X0080100Y0159900D01*
X0080100Y0153600D01*
X0086400Y0153600D01*
X0080100Y0153600D01*
X0080100Y0153600D01*
X0080100Y0153600D01*
X0080100Y0153600D01*
X0073800Y0153600D01*
X0073800Y0156210D01*
X0077490Y0159900D01*
X0080100Y0159900D01*
X0080100Y0153600D01*
X0073800Y0153600D01*
X0073800Y0150990D01*
X0076190Y0148600D01*
X0076090Y0148500D01*
X0066505Y0148500D01*
X0064668Y0147739D01*
X0043668Y0126739D01*
X0042261Y0125332D01*
X0041500Y0123495D01*
X0041500Y0050310D01*
X0040200Y0049010D01*
X0040200Y0043790D01*
X0043890Y0040100D01*
X0049110Y0040100D01*
X0052800Y0043790D01*
X0052800Y0049010D01*
X0051500Y0050310D01*
X0051500Y0120429D01*
X0051500Y0119957D02*
X0070747Y0119957D01*
X0068700Y0115958D02*
X0051500Y0115958D01*
X0051500Y0111960D02*
X0069431Y0111960D01*
X0069352Y0107961D02*
X0051500Y0107961D01*
X0051500Y0103963D02*
X0068700Y0103963D01*
X0070826Y0099964D02*
X0051500Y0099964D01*
X0051500Y0095966D02*
X0072000Y0095966D01*
X0072000Y0091967D02*
X0051500Y0091967D01*
X0051500Y0087969D02*
X0072637Y0087969D01*
X0074168Y0086261D02*
X0074168Y0086261D01*
X0076459Y0083970D02*
X0051500Y0083970D01*
X0051500Y0079972D02*
X0070762Y0079972D01*
X0068700Y0075973D02*
X0051500Y0075973D01*
X0051500Y0071975D02*
X0069416Y0071975D01*
X0069367Y0067976D02*
X0051500Y0067976D01*
X0051500Y0063978D02*
X0068700Y0063978D01*
X0070811Y0059979D02*
X0051500Y0059979D01*
X0051500Y0055981D02*
X0081300Y0055981D01*
X0081300Y0059979D02*
X0079189Y0059979D01*
X0075000Y0064700D02*
X0075000Y0075300D01*
X0086200Y0075300D01*
X0086300Y0075400D01*
X0090740Y0080400D02*
X0090740Y0080400D01*
X0091765Y0079972D02*
X0096000Y0079972D01*
X0096000Y0075973D02*
X0094100Y0075973D01*
X0092911Y0071975D02*
X0096000Y0071975D01*
X0096000Y0067976D02*
X0093478Y0067976D01*
X0093956Y0063978D02*
X0096000Y0063978D01*
X0096000Y0059979D02*
X0091300Y0059979D01*
X0091300Y0055981D02*
X0096000Y0055981D01*
X0096000Y0051982D02*
X0091357Y0051982D01*
X0092800Y0047984D02*
X0096000Y0047984D01*
X0098444Y0043985D02*
X0092800Y0043985D01*
X0086500Y0046400D02*
X0086300Y0054100D01*
X0086300Y0065400D01*
X0081353Y0051982D02*
X0051500Y0051982D01*
X0052800Y0047984D02*
X0080200Y0047984D01*
X0080200Y0043985D02*
X0052800Y0043985D01*
X0046500Y0046400D02*
X0046500Y0122500D01*
X0067500Y0143500D01*
X0080000Y0143500D01*
X0080100Y0143600D01*
X0084663Y0147946D02*
X0095000Y0147946D01*
X0095000Y0143948D02*
X0086400Y0143948D01*
X0085359Y0139949D02*
X0095000Y0139949D01*
X0095000Y0135951D02*
X0067022Y0135951D01*
X0060877Y0143948D02*
X0048000Y0143948D01*
X0046959Y0139949D02*
X0056878Y0139949D01*
X0052880Y0135951D02*
X0041122Y0135951D01*
X0039800Y0131952D02*
X0048881Y0131952D01*
X0044883Y0127954D02*
X0041100Y0127954D01*
X0041100Y0123955D02*
X0041691Y0123955D01*
X0041500Y0119957D02*
X0039253Y0119957D01*
X0041300Y0115958D02*
X0041500Y0115958D01*
X0041500Y0111960D02*
X0040569Y0111960D01*
X0040648Y0107961D02*
X0041500Y0107961D01*
X0041500Y0103963D02*
X0041300Y0103963D01*
X0041500Y0099964D02*
X0039174Y0099964D01*
X0041500Y0095966D02*
X0033337Y0095966D01*
X0032000Y0091967D02*
X0041500Y0091967D01*
X0041500Y0087969D02*
X0032000Y0087969D01*
X0032000Y0083970D02*
X0041500Y0083970D01*
X0041500Y0079972D02*
X0039238Y0079972D01*
X0035000Y0079972D02*
X0035000Y0079972D01*
X0035000Y0075973D02*
X0035000Y0075973D01*
X0041300Y0075973D02*
X0041500Y0075973D01*
X0041500Y0071975D02*
X0040584Y0071975D01*
X0040633Y0067976D02*
X0041500Y0067976D01*
X0041500Y0063978D02*
X0041300Y0063978D01*
X0041500Y0059979D02*
X0040000Y0059979D01*
X0040000Y0055981D02*
X0041500Y0055981D01*
X0041500Y0051982D02*
X0040000Y0051982D01*
X0040000Y0047984D02*
X0040200Y0047984D01*
X0040200Y0043985D02*
X0040000Y0043985D01*
X0040000Y0039987D02*
X0102442Y0039987D01*
X0107320Y0036262D02*
X0106991Y0035771D01*
X0106765Y0035225D01*
X0106650Y0034645D01*
X0106650Y0029600D01*
X0114400Y0029600D01*
X0122150Y0029600D01*
X0122150Y0034645D01*
X0122035Y0035225D01*
X0121809Y0035771D01*
X0121480Y0036262D01*
X0121062Y0036680D01*
X0120571Y0037009D01*
X0120025Y0037235D01*
X0119445Y0037350D01*
X0114400Y0037350D01*
X0114400Y0029600D01*
X0114400Y0029600D01*
X0114400Y0029600D01*
X0122150Y0029600D01*
X0122150Y0024555D01*
X0122035Y0023975D01*
X0121809Y0023429D01*
X0121480Y0022938D01*
X0121062Y0022520D01*
X0120571Y0022191D01*
X0120025Y0021965D01*
X0119445Y0021850D01*
X0114400Y0021850D01*
X0114400Y0029600D01*
X0114400Y0029600D01*
X0114400Y0029600D01*
X0114400Y0037350D01*
X0109355Y0037350D01*
X0108775Y0037235D01*
X0108229Y0037009D01*
X0107738Y0036680D01*
X0107320Y0036262D01*
X0107136Y0035988D02*
X0040000Y0035988D01*
X0040000Y0031990D02*
X0068953Y0031990D01*
X0069863Y0032900D02*
X0066700Y0029737D01*
X0066700Y0027500D01*
X0072100Y0027500D01*
X0077500Y0027500D01*
X0077500Y0029737D01*
X0074337Y0032900D01*
X0072100Y0032900D01*
X0072100Y0027500D01*
X0072100Y0027500D01*
X0072100Y0027500D01*
X0077500Y0027500D01*
X0077500Y0025263D01*
X0074337Y0022100D01*
X0072100Y0022100D01*
X0072100Y0027500D01*
X0072100Y0027500D01*
X0072100Y0027500D01*
X0072100Y0032900D01*
X0069863Y0032900D01*
X0072100Y0031990D02*
X0072100Y0031990D01*
X0075247Y0031990D02*
X0088953Y0031990D01*
X0085920Y0027991D02*
X0077500Y0027991D01*
X0076229Y0023993D02*
X0081921Y0023993D01*
X0080500Y0015500D02*
X0092100Y0027100D01*
X0092100Y0027500D01*
X0096229Y0023993D02*
X0106762Y0023993D01*
X0106765Y0023975D02*
X0106991Y0023429D01*
X0107320Y0022938D01*
X0107738Y0022520D01*
X0108229Y0022191D01*
X0108775Y0021965D01*
X0109355Y0021850D01*
X0114400Y0021850D01*
X0114400Y0029600D01*
X0106650Y0029600D01*
X0106650Y0024555D01*
X0106765Y0023975D01*
X0106650Y0027991D02*
X0097500Y0027991D01*
X0095247Y0031990D02*
X0106650Y0031990D01*
X0114400Y0031990D02*
X0114400Y0031990D01*
X0114400Y0035988D02*
X0114400Y0035988D01*
X0121664Y0035988D02*
X0122756Y0035988D01*
X0122150Y0031990D02*
X0126686Y0031990D01*
X0126363Y0027991D02*
X0122150Y0027991D01*
X0122038Y0023993D02*
X0128732Y0023993D01*
X0129019Y0019994D02*
X0092065Y0019994D01*
X0088067Y0015996D02*
X0127300Y0015996D01*
X0128199Y0011997D02*
X0084068Y0011997D01*
X0080500Y0015500D02*
X0049000Y0015500D01*
X0035000Y0029500D01*
X0035000Y0064700D01*
X0034800Y0064500D01*
X0030000Y0064500D01*
X0027000Y0067500D01*
X0027000Y0096700D01*
X0035000Y0104700D01*
X0034700Y0105000D01*
X0031000Y0105000D01*
X0022000Y0114000D01*
X0022000Y0153500D01*
X0034000Y0165500D01*
X0100000Y0165500D01*
X0162500Y0165500D01*
X0175500Y0152500D01*
X0175500Y0105000D01*
X0167300Y0105000D01*
X0167100Y0104800D01*
X0163026Y0099964D02*
X0156000Y0099964D01*
X0156000Y0095966D02*
X0170500Y0095966D01*
X0170500Y0091967D02*
X0156000Y0091967D01*
X0156000Y0087969D02*
X0170500Y0087969D01*
X0170500Y0083970D02*
X0156000Y0083970D01*
X0156000Y0079972D02*
X0162362Y0079972D01*
X0160500Y0075973D02*
X0156000Y0075973D01*
X0156000Y0071975D02*
X0161416Y0071975D01*
X0161067Y0067976D02*
X0156000Y0067976D01*
X0156000Y0063978D02*
X0160500Y0063978D01*
X0161800Y0059979D02*
X0158930Y0059979D01*
X0156100Y0054900D02*
X0151000Y0060000D01*
X0151000Y0123500D01*
X0130500Y0144000D01*
X0119600Y0144000D01*
X0118900Y0143300D01*
X0114637Y0147946D02*
X0105000Y0147946D01*
X0105000Y0143948D02*
X0112600Y0143948D01*
X0113341Y0139949D02*
X0105000Y0139949D01*
X0105000Y0135951D02*
X0131478Y0135951D01*
X0129857Y0131952D02*
X0135477Y0131952D01*
X0133500Y0127954D02*
X0139475Y0127954D01*
X0143474Y0123955D02*
X0133500Y0123955D01*
X0131253Y0119957D02*
X0146000Y0119957D01*
X0146000Y0115958D02*
X0133400Y0115958D01*
X0132769Y0111960D02*
X0146000Y0111960D01*
X0146000Y0107961D02*
X0132848Y0107961D01*
X0133400Y0103963D02*
X0146000Y0103963D01*
X0146000Y0099964D02*
X0131174Y0099964D01*
X0127100Y0104800D02*
X0127100Y0115200D01*
X0116500Y0115200D01*
X0116300Y0115400D01*
X0110820Y0119957D02*
X0105000Y0119957D01*
X0105000Y0123955D02*
X0108653Y0123955D01*
X0109113Y0127954D02*
X0105000Y0127954D01*
X0105000Y0131952D02*
X0124543Y0131952D01*
X0127200Y0125700D02*
X0116600Y0125700D01*
X0116300Y0125400D01*
X0108500Y0115958D02*
X0105000Y0115958D01*
X0105000Y0111960D02*
X0109703Y0111960D01*
X0105890Y0107961D02*
X0105000Y0107961D01*
X0110400Y0105400D02*
X0107000Y0102000D01*
X0107000Y0096500D01*
X0101000Y0090500D01*
X0101000Y0085900D01*
X0101500Y0085400D01*
X0101000Y0085400D01*
X0101500Y0085400D02*
X0116300Y0085400D01*
X0123481Y0087969D02*
X0146000Y0087969D01*
X0146000Y0091967D02*
X0122881Y0091967D01*
X0124100Y0095400D02*
X0116300Y0095400D01*
X0124100Y0095400D01*
X0124078Y0095966D02*
X0146000Y0095966D01*
X0156000Y0103963D02*
X0160800Y0103963D01*
X0161352Y0107961D02*
X0156000Y0107961D01*
X0156000Y0111960D02*
X0161431Y0111960D01*
X0160800Y0115958D02*
X0156000Y0115958D01*
X0156000Y0119957D02*
X0162947Y0119957D01*
X0160900Y0123955D02*
X0156000Y0123955D01*
X0153617Y0127954D02*
X0160900Y0127954D01*
X0161677Y0131952D02*
X0149619Y0131952D01*
X0145620Y0135951D02*
X0157678Y0135951D01*
X0151841Y0139949D02*
X0141622Y0139949D01*
X0137623Y0143948D02*
X0150800Y0143948D01*
X0152537Y0147946D02*
X0133625Y0147946D01*
X0125200Y0151945D02*
X0150800Y0151945D01*
X0150800Y0155943D02*
X0125166Y0155943D01*
X0118900Y0155943D02*
X0118900Y0155943D01*
X0112634Y0155943D02*
X0105000Y0155943D01*
X0105000Y0151945D02*
X0112600Y0151945D01*
X0105000Y0159942D02*
X0160987Y0159942D01*
X0163400Y0155943D02*
X0164985Y0155943D01*
X0163400Y0151945D02*
X0168984Y0151945D01*
X0170500Y0147946D02*
X0161663Y0147946D01*
X0163823Y0143948D02*
X0170500Y0143948D01*
X0170500Y0139949D02*
X0167822Y0139949D01*
X0167200Y0133500D02*
X0167200Y0125700D01*
X0167200Y0133500D02*
X0157100Y0143600D01*
X0157100Y0155943D02*
X0157100Y0155943D01*
X0167132Y0167939D02*
X0192100Y0167939D01*
X0192100Y0171937D02*
X0108251Y0171937D01*
X0109243Y0180000D02*
X0100000Y0170757D01*
X0100000Y0165500D01*
X0100000Y0103000D01*
X0092500Y0095500D01*
X0086400Y0095500D01*
X0086300Y0095400D01*
X0075000Y0104700D02*
X0075000Y0115300D01*
X0086200Y0115300D01*
X0086300Y0115400D01*
X0086300Y0125400D02*
X0086100Y0125600D01*
X0074800Y0125600D01*
X0065169Y0147946D02*
X0046263Y0147946D01*
X0048000Y0151945D02*
X0073800Y0151945D01*
X0073800Y0155943D02*
X0048000Y0155943D01*
X0041700Y0155943D02*
X0041700Y0155943D01*
X0035400Y0155943D02*
X0031514Y0155943D01*
X0035400Y0151945D02*
X0027516Y0151945D01*
X0027000Y0147946D02*
X0037137Y0147946D01*
X0034977Y0143948D02*
X0027000Y0143948D01*
X0027000Y0139949D02*
X0030978Y0139949D01*
X0029800Y0135951D02*
X0027000Y0135951D01*
X0027000Y0131952D02*
X0029800Y0131952D01*
X0028500Y0127954D02*
X0027000Y0127954D01*
X0027000Y0123955D02*
X0028500Y0123955D01*
X0027000Y0119957D02*
X0030747Y0119957D01*
X0028700Y0115958D02*
X0027113Y0115958D01*
X0020968Y0107961D02*
X0006500Y0107961D01*
X0006500Y0103963D02*
X0024966Y0103963D01*
X0023193Y0099964D02*
X0006500Y0099964D01*
X0006500Y0095966D02*
X0022000Y0095966D01*
X0022000Y0091967D02*
X0006500Y0091967D01*
X0006500Y0087969D02*
X0022000Y0087969D01*
X0022000Y0083970D02*
X0006500Y0083970D01*
X0006500Y0079972D02*
X0022000Y0079972D01*
X0022000Y0075973D02*
X0006500Y0075973D01*
X0006500Y0071975D02*
X0022000Y0071975D01*
X0022000Y0067976D02*
X0006500Y0067976D01*
X0006500Y0063978D02*
X0023451Y0063978D01*
X0027849Y0059979D02*
X0006500Y0059979D01*
X0006500Y0055981D02*
X0030000Y0055981D01*
X0030000Y0051982D02*
X0006500Y0051982D01*
X0006500Y0047984D02*
X0030000Y0047984D01*
X0030000Y0043985D02*
X0006500Y0043985D01*
X0006500Y0039987D02*
X0030000Y0039987D01*
X0030000Y0035988D02*
X0006500Y0035988D01*
X0006500Y0031990D02*
X0030000Y0031990D01*
X0030213Y0027991D02*
X0006500Y0027991D01*
X0006500Y0023993D02*
X0012477Y0023993D01*
X0011968Y0023782D02*
X0014909Y0025000D01*
X0018091Y0025000D01*
X0021032Y0023782D01*
X0023282Y0021532D01*
X0024500Y0018591D01*
X0024500Y0015409D01*
X0023282Y0012468D01*
X0021032Y0010218D01*
X0018091Y0009000D01*
X0014909Y0009000D01*
X0011968Y0010218D01*
X0009718Y0012468D01*
X0008500Y0015409D01*
X0008500Y0018591D01*
X0009718Y0021532D01*
X0011968Y0023782D01*
X0009081Y0019994D02*
X0006500Y0019994D01*
X0006500Y0015996D02*
X0008500Y0015996D01*
X0010189Y0011997D02*
X0006500Y0011997D01*
X0020523Y0023993D02*
X0033436Y0023993D01*
X0037435Y0019994D02*
X0023919Y0019994D01*
X0024500Y0015996D02*
X0041433Y0015996D01*
X0045432Y0011997D02*
X0022811Y0011997D01*
X0043580Y0027991D02*
X0066700Y0027991D01*
X0066700Y0027500D02*
X0066700Y0025263D01*
X0069863Y0022100D01*
X0072100Y0022100D01*
X0072100Y0027500D01*
X0066700Y0027500D01*
X0067971Y0023993D02*
X0047578Y0023993D01*
X0072100Y0023993D02*
X0072100Y0023993D01*
X0072100Y0027991D02*
X0072100Y0027991D01*
X0114400Y0027991D02*
X0114400Y0027991D01*
X0114400Y0023993D02*
X0114400Y0023993D01*
X0132899Y0039987D02*
X0157086Y0039987D01*
X0161084Y0043985D02*
X0128901Y0043985D01*
X0124902Y0047984D02*
X0153107Y0047984D01*
X0149800Y0051982D02*
X0122400Y0051982D01*
X0122400Y0055981D02*
X0147948Y0055981D01*
X0146000Y0059979D02*
X0130889Y0059979D01*
X0133100Y0063978D02*
X0146000Y0063978D01*
X0146000Y0067976D02*
X0132533Y0067976D01*
X0132184Y0071975D02*
X0146000Y0071975D01*
X0146000Y0075973D02*
X0133100Y0075973D01*
X0131238Y0079972D02*
X0146000Y0079972D01*
X0146000Y0083970D02*
X0123953Y0083970D01*
X0126800Y0075500D02*
X0116400Y0075500D01*
X0116300Y0075400D01*
X0116300Y0065400D02*
X0116300Y0054100D01*
X0116100Y0053900D01*
X0121300Y0059979D02*
X0122711Y0059979D01*
X0126800Y0064800D02*
X0126800Y0075500D01*
X0116300Y0095400D02*
X0116300Y0095400D01*
X0121605Y0099964D02*
X0123026Y0099964D01*
X0116300Y0105400D02*
X0110400Y0105400D01*
X0095000Y0151945D02*
X0086400Y0151945D01*
X0086400Y0155943D02*
X0095000Y0155943D01*
X0095000Y0159942D02*
X0035513Y0159942D01*
X0029368Y0167939D02*
X0006500Y0167939D01*
X0006500Y0171937D02*
X0095077Y0171937D01*
X0093455Y0174167D02*
X0092660Y0173708D01*
X0091812Y0173357D01*
X0090926Y0173120D01*
X0090016Y0173000D01*
X0089558Y0173000D01*
X0089558Y0180000D01*
X0096557Y0180000D01*
X0089558Y0180000D01*
X0089558Y0180000D01*
X0089557Y0180000D01*
X0082557Y0180000D01*
X0082557Y0179541D01*
X0082677Y0178631D01*
X0082915Y0177745D01*
X0083266Y0176897D01*
X0083725Y0176103D01*
X0084283Y0175375D01*
X0084932Y0174726D01*
X0085660Y0174167D01*
X0086455Y0173708D01*
X0087303Y0173357D01*
X0088189Y0173120D01*
X0089099Y0173000D01*
X0089557Y0173000D01*
X0089557Y0180000D01*
X0089557Y0180000D01*
X0082557Y0180000D01*
X0082557Y0180459D01*
X0082677Y0181369D01*
X0082915Y0182255D01*
X0083266Y0183103D01*
X0083725Y0183897D01*
X0084283Y0184625D01*
X0084932Y0185274D01*
X0085660Y0185833D01*
X0086455Y0186292D01*
X0087303Y0186643D01*
X0088189Y0186880D01*
X0089099Y0187000D01*
X0089557Y0187000D01*
X0089557Y0180000D01*
X0089558Y0180000D01*
X0089558Y0187000D01*
X0090016Y0187000D01*
X0090926Y0186880D01*
X0091812Y0186643D01*
X0092660Y0186292D01*
X0093455Y0185833D01*
X0094183Y0185274D01*
X0094832Y0184625D01*
X0095390Y0183897D01*
X0095849Y0183103D01*
X0096200Y0182255D01*
X0096438Y0181369D01*
X0096557Y0180459D01*
X0096557Y0180000D01*
X0096557Y0179541D01*
X0096438Y0178631D01*
X0096200Y0177745D01*
X0095849Y0176897D01*
X0095390Y0176103D01*
X0094832Y0175375D01*
X0094183Y0174726D01*
X0093455Y0174167D01*
X0095262Y0175936D02*
X0098107Y0175936D01*
X0096557Y0179934D02*
X0102106Y0179934D01*
X0102243Y0183933D02*
X0095363Y0183933D01*
X0089558Y0183933D02*
X0089557Y0183933D01*
X0089557Y0179934D02*
X0089558Y0179934D01*
X0089557Y0175936D02*
X0089558Y0175936D01*
X0083853Y0175936D02*
X0006500Y0175936D01*
X0006500Y0179934D02*
X0012653Y0179934D01*
X0011968Y0180218D02*
X0014909Y0179000D01*
X0018091Y0179000D01*
X0021032Y0180218D01*
X0023282Y0182468D01*
X0024500Y0185409D01*
X0024500Y0188591D01*
X0023282Y0191532D01*
X0021032Y0193782D01*
X0018091Y0195000D01*
X0014909Y0195000D01*
X0011968Y0193782D01*
X0009718Y0191532D01*
X0008500Y0188591D01*
X0008500Y0185409D01*
X0009718Y0182468D01*
X0011968Y0180218D01*
X0009111Y0183933D02*
X0006500Y0183933D01*
X0006500Y0187932D02*
X0008500Y0187932D01*
X0010116Y0191930D02*
X0006500Y0191930D01*
X0006500Y0195929D02*
X0192100Y0195929D01*
X0192100Y0191930D02*
X0188884Y0191930D01*
X0189282Y0191532D02*
X0187032Y0193782D01*
X0184091Y0195000D01*
X0180909Y0195000D01*
X0177968Y0193782D01*
X0175718Y0191532D01*
X0174500Y0188591D01*
X0174500Y0185409D01*
X0175718Y0182468D01*
X0177968Y0180218D01*
X0180909Y0179000D01*
X0184091Y0179000D01*
X0187032Y0180218D01*
X0189282Y0182468D01*
X0190500Y0185409D01*
X0190500Y0188591D01*
X0189282Y0191532D01*
X0190500Y0187932D02*
X0192100Y0187932D01*
X0192100Y0183933D02*
X0189889Y0183933D01*
X0192100Y0179934D02*
X0186347Y0179934D01*
X0192100Y0175936D02*
X0116243Y0175936D01*
X0116243Y0179934D02*
X0178653Y0179934D01*
X0175111Y0183933D02*
X0116243Y0183933D01*
X0083752Y0183933D02*
X0023889Y0183933D01*
X0024500Y0187932D02*
X0174500Y0187932D01*
X0176116Y0191930D02*
X0022884Y0191930D01*
X0020347Y0179934D02*
X0082557Y0179934D01*
X0080100Y0155943D02*
X0080100Y0155943D01*
X0041700Y0143600D02*
X0034800Y0136700D01*
X0034800Y0125600D01*
X0017000Y0123955D02*
X0006500Y0123955D01*
X0006500Y0119957D02*
X0017000Y0119957D01*
X0017000Y0115958D02*
X0006500Y0115958D01*
X0006500Y0111960D02*
X0017433Y0111960D01*
X0017000Y0127954D02*
X0006500Y0127954D01*
X0006500Y0131952D02*
X0017000Y0131952D01*
X0017000Y0135951D02*
X0006500Y0135951D01*
X0006500Y0139949D02*
X0017000Y0139949D01*
X0017000Y0143948D02*
X0006500Y0143948D01*
X0006500Y0147946D02*
X0017000Y0147946D01*
X0017000Y0151945D02*
X0006500Y0151945D01*
X0006500Y0155943D02*
X0017600Y0155943D01*
X0021371Y0159942D02*
X0006500Y0159942D01*
X0006500Y0163940D02*
X0025369Y0163940D01*
X0138657Y0035988D02*
X0149198Y0035988D01*
X0146371Y0031990D02*
X0141484Y0031990D01*
X0141807Y0027991D02*
X0146048Y0027991D01*
X0148417Y0023993D02*
X0139438Y0023993D01*
X0144000Y0019994D02*
X0144000Y0019994D01*
X0144000Y0015996D02*
X0144000Y0015996D01*
X0144000Y0015500D02*
X0144000Y0008800D01*
X0144000Y0015500D01*
X0144000Y0015500D01*
X0144000Y0011997D02*
X0144000Y0011997D01*
X0149714Y0011997D02*
X0176189Y0011997D01*
X0175718Y0012468D02*
X0177968Y0010218D01*
X0180909Y0009000D01*
X0184091Y0009000D01*
X0187032Y0010218D01*
X0189282Y0012468D01*
X0190500Y0015409D01*
X0190500Y0018591D01*
X0189282Y0021532D01*
X0187032Y0023782D01*
X0184091Y0025000D01*
X0180909Y0025000D01*
X0177968Y0023782D01*
X0175718Y0021532D01*
X0174500Y0018591D01*
X0174500Y0015409D01*
X0175718Y0012468D01*
X0174500Y0015996D02*
X0150693Y0015996D01*
X0148981Y0019994D02*
X0175081Y0019994D01*
X0178477Y0023993D02*
X0159123Y0023993D01*
X0161492Y0027991D02*
X0192100Y0027991D01*
X0192100Y0023993D02*
X0186523Y0023993D01*
X0189919Y0019994D02*
X0192100Y0019994D01*
X0192100Y0015996D02*
X0190500Y0015996D01*
X0192100Y0011997D02*
X0188811Y0011997D01*
X0192100Y0007999D02*
X0137098Y0007999D01*
X0134085Y0012085D02*
X0134000Y0015500D01*
X0153770Y0029600D02*
X0166800Y0042630D01*
X0166800Y0064800D01*
X0172000Y0064500D01*
X0175500Y0068000D01*
X0175500Y0105000D01*
X0180500Y0103963D02*
X0192100Y0103963D01*
X0192100Y0107961D02*
X0180500Y0107961D01*
X0180500Y0111960D02*
X0192100Y0111960D01*
X0192100Y0115958D02*
X0180500Y0115958D01*
X0180500Y0119957D02*
X0192100Y0119957D01*
X0192100Y0123955D02*
X0180500Y0123955D01*
X0180500Y0127954D02*
X0192100Y0127954D01*
X0192100Y0131952D02*
X0180500Y0131952D01*
X0180500Y0135951D02*
X0192100Y0135951D01*
X0192100Y0139949D02*
X0180500Y0139949D01*
X0180500Y0143948D02*
X0192100Y0143948D01*
X0192100Y0147946D02*
X0180500Y0147946D01*
X0180500Y0151945D02*
X0192100Y0151945D01*
X0192100Y0155943D02*
X0179128Y0155943D01*
X0175129Y0159942D02*
X0192100Y0159942D01*
X0192100Y0163940D02*
X0171131Y0163940D01*
X0180500Y0099964D02*
X0192100Y0099964D01*
X0192100Y0095966D02*
X0180500Y0095966D01*
X0180500Y0091967D02*
X0192100Y0091967D01*
X0192100Y0087969D02*
X0180500Y0087969D01*
X0180500Y0083970D02*
X0192100Y0083970D01*
X0192100Y0079972D02*
X0180500Y0079972D01*
X0180500Y0075973D02*
X0192100Y0075973D01*
X0192100Y0071975D02*
X0180500Y0071975D01*
X0180500Y0067976D02*
X0192100Y0067976D01*
X0192100Y0063978D02*
X0178549Y0063978D01*
X0178332Y0063761D02*
X0178332Y0063761D01*
X0174222Y0059979D02*
X0192100Y0059979D01*
X0192100Y0055981D02*
X0171800Y0055981D01*
X0171800Y0051982D02*
X0192100Y0051982D01*
X0192100Y0047984D02*
X0171800Y0047984D01*
X0171800Y0043985D02*
X0192100Y0043985D01*
X0192100Y0039987D02*
X0171117Y0039987D01*
X0167229Y0035988D02*
X0192100Y0035988D01*
X0192100Y0031990D02*
X0163231Y0031990D01*
X0154170Y0030000D02*
X0153770Y0029600D01*
X0159093Y0047984D02*
X0161800Y0047984D01*
X0156100Y0053900D02*
X0156100Y0054900D01*
X0166800Y0075973D02*
X0166800Y0075973D01*
X0166800Y0079972D02*
X0166800Y0079972D01*
M02*
